<svg focusable="false" version="1.1" xmlns="http://www.w3.org/2000/svg" height="20" width="20">
    <path stroke="white" fill="white"
            d="M7.7,18c0-3.1-2.5-5.6-5.6-5.7l0,0c-0.2,0-0.4,0-0.6-0.2l0,0v0c-0.3-0.3-0.3-0.7,0-1l0,0
            C1.6,11,1.7,11,1.9,10.9l0,0c0,0,0,0,0,0h0c0,0,0,0,0,0l0,0c0,0,0.1,0,0.1,0l0,0c3.9,0,7.1,3.2,7.1,7.1l0,0c0,0.4-0.3,0.7-0.7,0.7
            l0,0C8,18.7,7.7,18.4,7.7,18L7.7,18z M17.9,18C17.9,9.2,10.8,2.1,2,2.1l0,0v0c-0.4,0-0.7-0.3-0.7-0.7l0,0C1.3,1,1.6,0.7,2,0.7l0,0
            c9.5,0,17.3,7.7,17.3,17.3l0,0c0,0.4-0.3,0.7-0.7,0.7l0,0C18.2,18.7,17.9,18.4,17.9,18L17.9,18z" />
    <path stroke="white" fill="white"
            d="M12.8,18C12.8,12.1,8,7.3,2.1,7.2l0,0c-0.3,0-0.6-0.1-0.7-0.4l0,0c-0.2-0.4,0-0.8,0.3-1l0,0c0,0-0.1,0,0.3-0.1
            l0,0c6.7,0,12.2,5.4,12.2,12.2l0,0c0,0.4-0.3,0.7-0.7,0.7l0,0C13.1,18.7,12.8,18.4,12.8,18L12.8,18z" />
</svg>