<svg class="ss-line-svg" focusable="false" version="1.1" xmlns="http://www.w3.org/2000/svg" xmlns:xlink="http://www.w3.org/1999/xlink" aria-hidden="true" viewBox="0 0 11 9.2" width="11"  height="9.2" ><g fill="#00a651" id="icon-emergency">
            <title>Emergency</title>
            <path fill="#ed1b2f" d="M10.5,8.8l-5-8.7C5.5,0.1,5.4,0,5.3,0C5.2,0,5.1,0.1,5,0.1L0,8.8C0,8.9,0,9,0,9.1c0.1,0.1,0.1,0.1,0.2,0.1h10
                c0.1,0,0.2-0.1,0.2-0.1C10.6,9,10.6,8.9,10.5,8.8z"></path>
            <g>
                <path fill="#ffffff" d="M6,7.6C6,8,5.7,8.3,5.3,8.3S4.6,8,4.6,7.6c0-0.4,0.3-0.7,0.7-0.7c0,0,0,0,0,0
                    C5.7,6.9,6,7.2,6,7.6z"></path>
                <path fill="#ffffff" d="M5.3,2.7C4.9,2.7,4.6,3,4.6,3.4c0,0,0,0,0,0l0.2,2.4c0,0.3,0.1,0.5,0.2,0.6
                    c0.2,0.1,0.4,0.1,0.6,0c0.1-0.1,0.2-0.3,0.2-0.6L6,3.4C6,3,5.7,2.7,5.3,2.7C5.3,2.7,5.3,2.7,5.3,2.7z"></path>
            </g>
        </g></svg>