<svg class="ss-line-svg" focusable="false" version="1.1" xmlns="http://www.w3.org/2000/svg" viewBox="0 0 10 9.6" width="10"  height="9.6">
    <g fill="#00a651" id="icon-special-note">
        <title>Special note</title>
        <circle fill="#00b3ef" cx="5.1" cy="4.8" r="4.6" />
        <g>
            <path fill="#ffffff" d="M3.9,4.3L4,4h0.1h0.3h0.4c0.4,0,0.8,0,1.1-0.1L5,6.9L4.9,7.2c0,0.1,0,0.2,0,0.2c0,0.1,0.1,0.2,0.2,0.2
                s0.4-0.3,0.7-0.7L6,7.1c-0.6,0.7-1,1-1.5,1S3.7,7.9,3.7,7.4c0-0.2,0-0.3,0.2-1l0.7-2.2H3.9V4.3z" />
            <path fill="#ffffff" d="M6.5,2.1c0,0.5-0.4,0.8-0.9,0.8C5.3,2.9,5,2.7,5,2.3c0-0.5,0.4-0.8,0.9-0.8C6.3,1.5,6.5,1.8,6.5,2.1" />
        </g>
    </g>
</svg>