<svg class="ss-line-svg ss-minor" focusable="False" version="1.1" xmlns="http://www.w3.org/2000/svg" xmlns:xlink="http://www.w3.org/1999/xlink" aria-hidden="true" viewBox="0 0 21 21" width="21"  height="21" ><g fill="#b05f0d" id="icon-alert-blue">
            <title>Alert Icon</title>
            <rect height="17.14286" width="7.77778" y="1.9246" x="6.57142" stroke-opacity="null" stroke-width="null" stroke="null" fill="#ffffff"></rect>
            <path fill-rule="even-odd" clip-rule="even-odd" fill="#1f66b0" d="m10.5,0c-5.8,0 -10.5,4.7 -10.5,10.5c0,5.8 4.7,10.5 10.5,10.5c5.8,0 10.5,-4.7 10.5,-10.5c0,-5.8 -4.7,-10.5 -10.5,-10.5zm0,2.5c1.1,0 1.9,0.9 1.9,2l-0.6,6.9c-0.1,0.9 -0.2,1.4 -0.6,1.6c-0.2,0.1 -0.5,0.2 -0.8,0.2c-0.3,0 -0.5,-0.1 -0.8,-0.2c-0.4,-0.2 -0.5,-0.7 -0.6,-1.6l-0.4,-6.9c0,-1.1 0.8,-2 1.9,-2zm0,15.7c-1.1,0 -2,-0.9 -2,-2c0,-1.1 0.9,-2 2,-2c1.1,0 2,0.9 2,2c0,1.1 -0.9,2 -2,2z"></path>
        </g></svg>